<?xml version="1.0" encoding="UTF-8" standalone="no"?>
<!-- Created with Inkscape (http://www.inkscape.org/) -->

<svg
   version="1.1"
   id="svg2946"
   width="124"
   height="123.2"
   viewBox="0 0 124 123.2"
   sodipodi:docname="AppImagesColors.svg"
   xml:space="preserve"
   inkscape:version="1.2.2 (732a01da63, 2022-12-09)"
   inkscape:export-filename="RedExPt2.png"
   inkscape:export-xdpi="37.048115"
   inkscape:export-ydpi="37.048115"
   xmlns:inkscape="http://www.inkscape.org/namespaces/inkscape"
   xmlns:sodipodi="http://sodipodi.sourceforge.net/DTD/sodipodi-0.dtd"
   xmlns="http://www.w3.org/2000/svg"
   xmlns:svg="http://www.w3.org/2000/svg"><defs
     id="defs2950" /><sodipodi:namedview
     id="namedview2948"
     pagecolor="#ffffff"
     bordercolor="#000000"
     borderopacity="0.25"
     inkscape:showpageshadow="2"
     inkscape:pageopacity="0.0"
     inkscape:pagecheckerboard="0"
     inkscape:deskcolor="#d1d1d1"
     showgrid="false"
     inkscape:zoom="1.4142136"
     inkscape:cx="100.76272"
     inkscape:cy="78.842407"
     inkscape:window-width="2400"
     inkscape:window-height="1271"
     inkscape:window-x="2391"
     inkscape:window-y="-9"
     inkscape:window-maximized="1"
     inkscape:current-layer="g2952" /><g
     inkscape:groupmode="layer"
     inkscape:label="Image"
     id="g2952"><path
       style="fill:#da5946;fill-opacity:1;stroke-width:0.119961"
       d="m 181.18707,115.00571 c -20.26116,-1.43812 -38.3774,-13.73386 -47.0972,-31.965532 -9.28728,-19.41818 -6.66621,-42.291273 6.77362,-59.110829 2.86017,-3.579431 6.48148,-7.100943 10.09339,-9.815258 7.79528,-5.8580571 16.85762,-9.6152701 26.39144,-10.9417921 3.28704,-0.457355 8.44514,-0.712157 10.60528,-0.523885 3.6952,0.322063 5.1635,0.491231 6.99777,0.806236 18.05198,3.10013 33.50709,14.7155201 41.43193,31.1384481 7.5186,15.58108 7.39119,33.83109 -0.34418,49.29906 -3.8619,7.7224 -9.64584,14.6464 -16.58449,19.853382 -10.92933,8.20174 -24.61634,12.22912 -38.26756,11.26017 z"
       id="path914-5" /><path
       style="fill:#acd079;fill-opacity:1;stroke-width:0.119961"
       d="m 180.04744,105.71027 c -5.9017,-0.75286 -12.17186,-2.77955 -17.05297,-5.51198 -12.02436,-6.731227 -20.34036,-17.909062 -23.198,-31.181309 -0.60659,-2.817244 -0.68034,-3.618382 -0.742,-8.059537 -0.0772,-5.558292 0.11891,-7.963392 0.92834,-11.387672 1.88383,-7.969405 6.66858,-16.317722 12.94987,-22.594604 1.36729,-1.366332 4.01265,-3.723327 4.17885,-3.723327 0.0471,0 0.16167,0.121461 0.25464,0.269913 0.43337,0.691933 9.00571,18.0403 9.00571,18.225385 0,0.05863 -0.46437,0.65813 -1.03193,1.332229 -3.20734,3.809416 -5.48049,8.85644 -6.04992,13.432525 -0.22649,1.820128 -0.0882,7.267705 0.22001,8.666335 1.12162,5.089891 3.66293,9.706581 7.3025,13.266162 3.48253,3.405993 7.39848,5.586472 12.274,6.834423 2.10507,0.538819 3.26198,0.635204 6.65675,0.554591 3.18351,-0.0756 4.04954,-0.191666 6.42021,-0.860482 8.25081,-2.327717 14.87546,-8.689283 17.56526,-16.867683 0.73827,-2.244711 1.00114,-3.64064 1.16433,-6.182948 0.19789,-3.082985 0.0153,-5.782419 -0.53955,-7.975852 -1.12299,-4.43958 -3.23117,-8.363472 -6.20329,-11.54599 -0.4567,-0.489034 -0.83037,-0.913997 -0.83037,-0.944363 0,-0.07173 2.70162,-5.593355 6.35376,-12.985939 1.59716,-3.23295 2.95193,-5.999552 3.01058,-6.148004 0.14866,-0.37627 0.29064,-0.342596 0.99564,0.236139 4.33392,3.557743 8.1047,7.874271 10.86731,12.44013 2.44358,4.038603 4.48401,8.879582 5.64176,13.385269 1.05066,4.088897 1.25988,6.404827 1.17041,12.955793 -0.0549,4.019795 -0.0807,4.432101 -0.37267,5.959063 -1.36663,7.146636 -4.00805,13.479106 -7.89236,18.920987 -2.25833,3.163898 -6.1504,7.321541 -8.91796,9.526469 -6.59189,5.251797 -14.7055,8.732527 -22.73261,9.752257 -1.33914,0.17012 -10.40291,0.33874 -11.3963,0.21202 z"
       id="path4234-6" /><path
       style="fill:#cccccc;fill-opacity:1;stroke-width:0.119961"
       d="M 58.900872,113.88668 C 38.639715,112.44856 20.523481,100.15282 11.803681,81.92115 2.5164012,62.50297 5.1374682,39.629877 18.577292,22.810321 21.437471,19.23089 25.058773,15.709378 28.67069,12.995063 36.465962,7.1370058 45.528302,3.3797929 55.062122,2.0532709 c 3.28704,-0.457355 8.44514,-0.712157 10.60528,-0.523885 3.6952,0.322063 5.1635,0.491231 6.99777,0.806236 18.05199,3.10013 33.507098,14.7155201 41.431938,31.1384481 7.5186,15.58108 7.39119,33.83109 -0.34418,49.29906 -3.8619,7.7224 -9.64584,14.6464 -16.584488,19.85338 -10.92933,8.20174 -24.61635,12.22912 -38.26757,11.26017 z"
       id="path914" /><path
       style="fill:#a3d16e;fill-opacity:1;stroke-width:0.296537"
       d="M 56.403245,104.52331 C 36.407926,101.4801 20.843731,86.461689 17.082391,66.581329 c -0.762002,-4.02756 -0.693623,-12.65672 0.13181,-16.62479 3.257292,-15.660106 14.925583,-28.980896 29.197225,-34.963276 25.248204,-10.5835093 52.639125,3.60343 60.866414,29.620406 1.60272,5.06831 1.99908,7.83967 1.99466,13.94726 -0.004,5.0856 -0.0836,6.00886 -0.80127,9.26939 -1.3348,6.06349 -3.1233,10.50011 -6.1796,15.32937 -6.888836,10.88511 -17.551483,18.258911 -30.237209,20.910761 -3.994104,0.83493 -11.679685,1.05731 -15.651105,0.45286 z"
       id="path1039"
       sodipodi:nodetypes="sscssccssss" /><path
       style="fill:#cccccc;fill-opacity:1;stroke-width:0.165294"
       d="M 59.123694,84.521578 C 47.97571,82.825561 39.298208,74.455653 37.201148,63.37612 c -0.424837,-2.244579 -0.386715,-7.053705 0.07349,-9.265159 1.816036,-8.727538 7.451991,-15.683358 15.408856,-19.017392 14.076623,-5.898304 30.217336,1.540234 34.804299,16.039756 0.893569,2.824625 1.114541,4.36913 1.112078,7.772953 -0.0027,2.834259 -0.04659,3.348799 -0.446724,5.165918 -0.744196,3.379254 -1.741331,5.851817 -3.445316,8.543223 -3.840733,6.066375 -9.785471,10.175873 -16.858137,11.653772 -2.226834,0.465314 -6.511775,0.589252 -8.725959,0.252387 z"
       id="path1242" /><path
       style="fill:#cccccc;fill-opacity:1;stroke-width:0.165294"
       d="M 57.18259,94.930078 C 46.034606,93.234061 37.357104,84.864153 35.260044,73.78462 c -0.424837,-2.244579 -0.386715,-7.053705 0.07349,-9.265159 1.816036,-8.727538 7.451991,-15.683358 15.408856,-19.017392 14.076623,-5.898304 30.217336,1.540234 34.804299,16.039756 0.893569,2.824625 1.114541,4.36913 1.112078,7.772953 -0.0027,2.834259 -0.04659,3.348799 -0.446724,5.165918 -0.744196,3.379254 -1.741331,5.851817 -3.445316,8.543223 -3.840733,6.066375 -9.785471,10.175873 -16.858137,11.653772 -2.226834,0.465314 -6.511775,0.589252 -8.725959,0.252387 z"
       id="path1242-2" /><path
       style="fill:#cccccc;fill-opacity:1;stroke-width:0.297901"
       d="M 179.0074,105.73596 C 158.9771,102.67 143.38565,87.53936 139.61773,67.510395 c -0.76334,-4.057607 -0.69484,-12.75128 0.13207,-16.749014 3.26298,-15.777152 13.38948,-28.351489 27.68608,-34.378578 25.2924,-10.6626125 54.29348,2.784358 62.53518,28.995769 1.60553,5.106188 2.00257,7.898267 1.99815,14.051499 -0.005,5.123615 -0.0836,6.05377 -0.80265,9.338658 -1.33715,6.108816 -3.12877,10.578588 -6.19043,15.443949 -6.90091,10.966458 -17.5822,18.395382 -30.29014,21.067032 -4.00108,0.84117 -11.70011,1.06522 -15.67849,0.45625 z"
       id="path1242-2-9" /><rect
       style="fill:#cccccc;fill-opacity:1;stroke-width:0.948569"
       id="rect1423"
       width="26.292858"
       height="36.488968"
       x="22.099001"
       y="36.4217"
       ry="0"
       rx="0"
       transform="matrix(0.80878025,-0.58811096,0.44190196,0.89706335,0,0)" /><rect
       style="fill:#cccccc;fill-opacity:1;stroke-width:0.948569"
       id="rect1423-4"
       width="26.292858"
       height="36.488968"
       x="65.400246"
       y="1.6909583"
       ry="0"
       rx="0"
       transform="matrix(0.80878025,0.58811096,0.44190196,-0.89706335,0,0)"
       inkscape:export-filename="PowerButton_Grn2.png"
       inkscape:export-xdpi="37.048115"
       inkscape:export-ydpi="37.048115" /><rect
       style="fill:#cccccc;fill-opacity:1"
       id="rect1494"
       width="2.639143"
       height="4.7984419"
       x="53.982471"
       y="6.5978575" /><rect
       style="fill:#a3d16e;fill-opacity:1;stroke-width:1.15619"
       id="rect2250"
       width="22.432716"
       height="46.664848"
       x="51.543911"
       y="8.1573515"
       inkscape:export-filename="PowerButton_Grn2.PNG.png"
       inkscape:export-xdpi="84.420174"
       inkscape:export-ydpi="84.420174" /><path
       style="fill:#ececec;fill-opacity:1;stroke-width:0.119961"
       d="m 58.083113,104.66697 c -3.230849,-0.31191 -7.648545,-1.35665 -10.986557,-2.59821 -3.684793,-1.37055 -6.514124,-2.813357 -9.848651,-5.022289 C 27.582801,90.643898 20.680368,80.85627 17.806751,69.478975 c -0.905828,-3.586377 -1.193748,-6.169188 -1.19029,-10.677614 0.005,-6.561093 0.667236,-10.402764 2.722699,-15.795325 2.170948,-5.695537 5.68934,-11.282731 10.062959,-15.979945 1.611298,-1.730514 3.056453,-3.078213 5.355366,-4.99422 0.193372,-0.161163 0.475924,0.367174 3.845817,7.191153 2.000412,4.050802 4.086741,8.293064 4.636287,9.427248 l 0.999175,2.062153 -0.687931,0.756931 c -2.799945,3.080785 -4.918226,7.076034 -6.011028,11.337284 -0.552982,2.156288 -0.696787,3.831231 -0.615928,7.173884 0.07456,3.082258 0.205903,3.907998 1.042161,6.552069 2.893639,9.149078 10.297278,15.786196 19.881461,17.823077 1.43394,0.304748 1.731298,0.326174 4.592227,0.330891 3.445296,0.0057 4.430161,-0.09855 6.818676,-0.721625 6.374135,-1.662779 11.632397,-5.457279 15.283007,-11.028619 1.72729,-2.636085 2.88668,-5.427042 3.637808,-8.757156 0.545522,-2.418566 0.605634,-7.81075 0.113674,-10.196689 -1.00673,-4.882503 -3.377195,-9.469348 -6.614124,-12.798321 l -0.780036,-0.802216 4.835931,-9.82674 4.835929,-9.826741 0.479845,0.36632 c 4.142823,3.16269 8.48019,8.080743 11.364354,12.885812 3.47461,5.788758 5.98426,12.926224 6.59011,18.742295 0.21432,2.05742 0.21659,10.463482 0.003,11.936124 -0.77196,5.328122 -2.79262,11.482588 -5.17928,15.774878 -3.41279,6.137756 -7.978561,11.390181 -13.378221,15.390213 -6.315953,4.678814 -14.230254,7.839264 -21.71295,8.670724 -1.945641,0.21619 -9.015134,0.33042 -10.654567,0.17215 z"
       id="path3376" /><path
       style="fill:#ececec;fill-opacity:1;stroke-width:0.119961"
       d="M 51.643231,31.489775 V 8.2173318 H 62.799609 73.955986 V 31.489775 54.762218 H 62.799609 51.643231 Z"
       id="path3378"
       inkscape:export-filename="PowerButton_Graypng.png"
       inkscape:export-xdpi="84.420174"
       inkscape:export-ydpi="84.420174" /><path
       style="fill:#ececec;fill-opacity:1;stroke-width:0.119961"
       d="M 51.643231,31.489775 V 8.2173318 H 62.799609 73.955986 V 31.489775 54.762218 H 62.799609 51.643231 Z"
       id="path4232" /><path
       style="fill:#ececec;fill-opacity:1;stroke-width:0.0698613"
       d="m 73.873213,133.28963 v -7.89287 h 11.156378 11.156377 v 7.89287 7.89286 H 85.029591 73.873213 Z"
       id="path4232-3" /><path
       style="fill:#cccccc;fill-opacity:1;stroke-width:0.0698613"
       d="m 100.92005,133.64319 v -7.89287 h 11.15638 11.15637 v 7.89287 7.89286 h -11.15637 -11.15638 z"
       id="path4232-3-0"
       inkscape:transform-center-x="9.3691651"
       inkscape:transform-center-y="-2.8284272" /><path
       style="fill:#acd079;fill-opacity:1;stroke-width:0.0706393"
       d="m 24.862879,133.42331 v -8.06964 h 11.15638 11.15638 v 8.06964 8.06965 h -11.15638 -11.15638 z"
       id="path4232-2" /><path
       style="fill:#da5946;fill-opacity:1;stroke-width:0.0686777"
       d="m 49.334939,133.46121 v -7.6277 h 11.15638 11.15638 v 7.6277 7.6277 h -11.15638 -11.15638 z"
       id="path4232-5" /><path
       style="fill:#5a83ed;fill-opacity:1;stroke-width:0.0702514"
       d="m 0.39082948,133.095 v -7.98126 H 11.547209 22.703589 v 7.98126 7.98126 H 11.547209 0.39082948 Z"
       id="path4232-4" /><path
       style="fill:#acd079;fill-opacity:1;stroke-width:0.119961"
       d="M 57.761245,104.59124 C 51.859549,103.83838 45.589383,101.81169 40.708279,99.079258 28.683914,92.348035 20.367921,81.1702 17.510272,67.897953 c -0.606581,-2.817244 -0.680337,-3.618382 -0.741993,-8.059537 -0.07717,-5.558292 0.118903,-7.963392 0.928342,-11.387672 1.883827,-7.969405 6.668578,-16.317722 12.949864,-22.594604 1.367291,-1.366332 4.012651,-3.723327 4.178856,-3.723327 0.04707,0 0.161663,0.121461 0.254639,0.269913 0.433362,0.691933 9.005705,18.0403 9.005705,18.225385 0,0.05863 -0.464367,0.65813 -1.031926,1.332229 -3.207344,3.809416 -5.480492,8.85644 -6.049925,13.432525 -0.226491,1.820128 -0.08819,7.267705 0.220012,8.666335 1.121621,5.089891 3.662928,9.706581 7.302501,13.266162 3.482534,3.405993 7.398475,5.586472 12.274,6.834423 2.105073,0.538819 3.261981,0.635204 6.656748,0.554591 3.183515,-0.0756 4.049537,-0.191666 6.420216,-0.860482 8.250806,-2.327717 14.875463,-8.689283 17.565265,-16.867683 0.738265,-2.244711 1.001135,-3.64064 1.164323,-6.182948 0.197893,-3.082985 0.01528,-5.782419 -0.539546,-7.975852 -1.122992,-4.43958 -3.231176,-8.363472 -6.203297,-11.54599 -0.456702,-0.489034 -0.830368,-0.913997 -0.830368,-0.944363 0,-0.07173 2.701621,-5.593355 6.353761,-12.985939 1.597167,-3.23295 2.951928,-5.999552 3.010582,-6.148004 0.148663,-0.37627 0.290644,-0.342596 0.99564,0.236139 4.333919,3.557743 8.104702,7.874271 10.867309,12.44013 2.44358,4.038603 4.48401,8.879582 5.64176,13.385269 1.05066,4.088897 1.25988,6.404827 1.17041,12.955793 -0.0549,4.019795 -0.0807,4.432101 -0.37267,5.959063 -1.36663,7.146636 -4.00805,13.479106 -7.89236,18.920987 -2.258328,3.163898 -6.150399,7.321541 -8.917957,9.526469 -6.591897,5.251799 -14.705509,8.732525 -22.732619,9.752255 -1.339133,0.17012 -10.402903,0.33874 -11.396299,0.21202 z"
       id="path4234" /><text
       xml:space="preserve"
       style="font-size:156.402px;font-family:'Bauhaus 93';-inkscape-font-specification:'Bauhaus 93, Normal';fill:#da5946;fill-opacity:1;stroke-width:1.67573"
       x="85.524887"
       y="150.99039"
       id="text9380"
       transform="scale(1.7386042,0.57517404)"
       inkscape:export-filename="RedExPt2.png"
       inkscape:export-xdpi="37.048115"
       inkscape:export-ydpi="37.048115"><tspan
         sodipodi:role="line"
         id="tspan9378"
         x="85.524887"
         y="150.99039"
         style="font-style:normal;font-variant:normal;font-weight:normal;font-stretch:normal;font-family:'Franklin Gothic Book';-inkscape-font-specification:'Franklin Gothic Book, ';stroke-width:1.67573">!</tspan></text><path
       style="fill:#cccccc;fill-opacity:1;stroke-width:0.0886453"
       d="m 165.62032,82.731498 v -7.89287 h 17.96229 17.96227 v 7.89287 7.89286 h -17.96227 -17.96229 z"
       id="path4232-3-0-1"
       inkscape:transform-center-x="15.084785"
       inkscape:transform-center-y="-2.8284272" /><path
       style="fill:#da5946;fill-opacity:1;stroke-width:0.0664656"
       d="m 174.69138,86.267026 v -7.6277 h 10.44928 10.44927 v 7.6277 7.6277 h -10.44927 -10.44928 z"
       id="path4232-5-8" /><rect
       style="fill:#5a83ed;fill-opacity:1;stroke-width:16.5586"
       id="rect186"
       width="424.28574"
       height="118.44039"
       x="-507.96509"
       y="193.3018"
       ry="30.190689"
       inkscape:export-filename="BlueRoundedBtn_46x164.png"
       inkscape:export-xdpi="37.048115"
       inkscape:export-ydpi="37.048115" /></g></svg>
